<?xml version="1.0" standalone="no"?>
<!DOCTYPE svg PUBLIC "-//W3C//DTD SVG 20010904//EN"
 "http://www.w3.org/TR/2001/REC-SVG-20010904/DTD/svg10.dtd">
<svg version="1.0" xmlns="http://www.w3.org/2000/svg"
 width="498.000000pt" height="437.000000pt" viewBox="0 0 498.000000 437.000000"
 preserveAspectRatio="xMidYMid meet">

<g transform="translate(0.000000,437.000000) scale(0.100000,-0.100000)"
fill="#000000" stroke="none">
<path d="M0 2185 l0 -2185 2490 0 2490 0 0 2185 0 2185 -2490 0 -2490 0 0
-2185z m2855 1701 c94 -44 134 -116 135 -237 l0 -76 56 -7 c70 -8 124 -35 163
-83 47 -57 53 -89 49 -289 l-3 -181 -30 -49 c-17 -27 -47 -60 -68 -73 l-37
-24 0 -84 c0 -76 -2 -86 -25 -108 -17 -18 -35 -25 -61 -25 -34 0 -46 9 -136
100 -71 71 -106 100 -123 100 l-24 0 -3 -538 -3 -538 -26 -49 c-15 -30 -42
-62 -68 -80 l-43 -30 -396 -3 c-447 -3 -452 -2 -516 68 -19 21 -40 56 -46 77
-8 27 -10 281 -8 865 l3 826 30 44 c48 68 97 89 221 96 l104 5 0 52 c0 114 53
205 144 246 37 17 71 19 351 19 305 0 311 -1 360 -24z m273 -2748 c70 3 81 1
119 -24 64 -43 73 -74 73 -269 l0 -165 -50 0 -50 0 0 148 c0 120 -3 153 -18
182 -17 34 -18 35 -84 38 l-68 3 0 -186 0 -185 -55 0 -55 0 0 329 0 329 53 9
52 8 3 -110 3 -110 77 3z m-1888 105 l0 -108 89 0 c100 0 129 -13 166 -76 17
-30 20 -56 23 -206 l4 -173 -50 0 -49 0 -5 153 c-6 160 -16 202 -51 213 -25 8
-104 7 -117 -1 -6 -4 -10 -81 -10 -186 l0 -179 -50 0 -50 0 0 329 0 330 23 4
c12 2 34 5 50 6 l27 1 0 -107z m504 71 c9 -8 16 -28 16 -44 0 -16 -7 -36 -16
-44 -8 -9 -28 -16 -44 -16 -16 0 -36 7 -44 16 -9 8 -16 28 -16 44 0 16 7 36
16 44 8 9 28 16 44 16 16 0 36 -7 44 -16z m246 -109 l0 -65 80 0 80 0 0 -45 0
-45 -80 0 -80 0 0 -115 c0 -163 15 -185 116 -171 47 6 47 6 58 -46 6 -24 3
-28 -31 -37 -101 -28 -196 0 -230 68 -15 31 -18 67 -18 271 l0 235 30 6 c74
16 75 16 75 -56z m2030 0 l0 -65 80 0 80 0 0 -45 0 -45 -80 0 -80 0 0 -119 c0
-106 2 -121 22 -146 19 -24 26 -27 67 -22 25 2 52 6 60 8 18 5 36 -70 21 -85
-6 -6 -49 -11 -98 -11 -75 0 -92 3 -119 23 -53 38 -63 90 -63 343 l0 218 28 4
c84 13 82 14 82 -58z m-2993 -76 c19 -7 20 -11 11 -49 -10 -40 -11 -40 -47
-33 -120 23 -181 -25 -181 -143 0 -105 51 -150 162 -142 65 5 69 4 74 -18 15
-58 -7 -71 -114 -73 -134 -2 -214 70 -228 206 -10 93 23 178 88 226 55 41 163
53 235 26z m1786 5 c38 -6 39 -7 32 -43 -9 -48 -13 -51 -61 -42 -89 17 -144
-13 -164 -90 -16 -60 -5 -123 30 -162 28 -31 30 -32 114 -32 82 1 86 0 86 -21
0 -12 3 -29 6 -37 9 -24 -58 -40 -141 -35 -60 4 -79 10 -117 36 -60 41 -81 87
-86 185 -4 68 -1 84 23 133 31 63 78 100 146 113 43 9 55 8 132 -5z m895 -8
c69 -36 82 -79 82 -276 0 -182 11 -166 -121 -176 -108 -9 -159 1 -204 39 -34
29 -38 39 -42 88 -8 104 50 151 190 153 60 1 76 4 72 14 -3 8 -5 22 -5 33 0
11 -14 28 -32 39 -26 17 -43 19 -83 15 -27 -3 -59 -7 -70 -8 -15 -2 -21 6 -26
38 -4 22 -5 42 -4 44 2 1 28 7 57 11 66 11 151 4 186 -14z m-1958 -216 l0
-230 -50 0 -50 0 0 230 0 230 50 0 50 0 0 -230z m690 20 l0 -50 -115 0 -115 0
0 50 0 50 115 0 115 0 0 -50z m-964 -412 l6 -21 20 24 20 24 -16 -27 c-9 -15
-16 -38 -17 -50 -1 -17 -3 -15 -9 9 -4 18 -13 40 -20 48 -8 9 -8 15 -2 15 6 0
14 -10 18 -22z m112 15 c-9 -2 -20 -13 -23 -24 -13 -41 43 -68 64 -31 6 9 11
12 11 6 1 -38 -73 -42 -85 -4 -8 25 11 60 33 59 16 -1 16 -2 0 -6z m49 -8 c9
-24 -1 -27 -15 -5 -8 13 -8 20 -2 20 6 0 13 -7 17 -15z m66 -61 c16 -16 37 8
38 43 1 25 3 30 6 14 7 -36 -5 -71 -25 -71 -28 0 -42 21 -41 60 l1 35 8 -38
c4 -20 10 -40 13 -43z m144 60 c3 -9 0 -20 -8 -25 -11 -6 -11 -11 -1 -21 6 -6
12 -17 12 -22 0 -6 -7 0 -16 12 -18 27 -31 28 -37 5 -3 -10 -5 1 -6 25 -1 39
1 42 24 42 14 0 28 -7 32 -16z m161 4 c18 -18 14 -56 -7 -68 -40 -21 -51 -13
-51 35 0 40 2 45 23 45 13 0 28 -5 35 -12z m108 -23 c20 -49 16 -58 -6 -10
l-18 40 -7 -32 c-4 -18 -14 -38 -21 -44 -11 -9 -10 -3 2 27 28 67 29 67 50 19z
m102 28 c-13 -3 -18 -16 -20 -46 l-1 -42 -4 42 c-3 29 -9 43 -21 46 -9 3 1 5
23 5 22 0 32 -2 23 -5z m100 -20 c5 -16 13 -37 17 -48 l8 -20 -16 20 c-9 11
-17 28 -17 38 0 29 -18 19 -30 -19 -7 -19 -14 -33 -16 -31 -7 7 27 87 36 87 4
0 13 -12 18 -27z m157 10 c16 21 16 21 1 -5 -9 -15 -16 -38 -17 -50 -1 -17 -3
-15 -9 9 -4 18 -11 39 -16 46 -5 7 -2 5 7 -5 16 -17 18 -17 34 5z m78 7 c-41
-17 -19 -76 24 -68 22 4 29 44 11 65 -11 14 -11 15 2 11 19 -6 25 -55 9 -74
-7 -8 -24 -14 -38 -12 -50 6 -52 89 -2 87 11 0 9 -3 -6 -9z m120 -66 c16 -16
37 8 38 43 1 25 3 30 6 14 7 -36 -5 -71 -25 -71 -28 0 -42 21 -41 60 l1 35 8
-38 c4 -20 10 -40 13 -43z m142 66 c4 -6 1 -18 -6 -26 -9 -11 -9 -18 -1 -26 7
-7 12 -17 12 -22 0 -6 -7 0 -16 12 -19 28 -31 28 -37 0 -2 -13 -5 -2 -6 25 -1
44 1 47 23 47 14 0 28 -5 31 -10z m152 -7 c4 -9 1 -19 -5 -21 -9 -3 -9 -9 -1
-24 6 -11 8 -22 6 -25 -3 -2 -8 5 -12 16 -8 26 -22 27 -28 4 -3 -10 -5 1 -6
25 -1 36 2 42 19 42 11 0 24 -8 27 -17z m50 -50 c-2 -16 -4 -5 -4 22 0 28 2
40 4 28 2 -13 2 -35 0 -50z m81 60 c-40 -10 -28 -73 13 -73 21 0 26 26 7 33
-8 3 -6 6 5 6 12 1 17 -7 17 -24 0 -20 -5 -25 -23 -25 -13 0 -32 9 -42 20 -15
17 -16 24 -7 45 7 14 19 24 29 24 16 -1 16 -2 1 -6z m127 -33 c17 0 25 7 28
23 2 12 4 0 4 -28 0 -27 -2 -40 -4 -27 -3 15 -11 22 -28 22 -17 0 -25 -7 -28
-22 -2 -13 -4 0 -4 27 0 28 2 40 4 28 3 -16 11 -23 28 -23z m123 33 c-13 -3
-18 -16 -20 -46 l-1 -42 -4 42 c-3 29 -9 43 -21 46 -9 3 1 5 23 5 22 0 32 -2
23 -5z m80 0 c-24 -6 -23 -18 4 -35 14 -9 19 -20 15 -31 -7 -17 -47 -24 -47
-8 0 5 9 7 20 4 13 -4 20 0 20 10 0 8 -9 17 -20 20 -29 8 -27 47 3 46 16 -1
18 -2 5 -6z"/>
<path d="M2162 3800 c-18 -11 -41 -34 -52 -52 -19 -30 -20 -47 -18 -205 3
-195 9 -211 85 -248 l42 -20 3 -97 3 -97 106 99 106 99 191 3 192 3 37 38 38
37 0 189 c0 188 0 190 -25 216 -51 54 -56 55 -377 55 -280 0 -300 -1 -331 -20z"/>
<path d="M1828 3483 c-15 -2 -41 -18 -58 -34 l-30 -31 0 -820 0 -820 34 -34
34 -34 376 0 c418 0 420 0 450 64 14 30 16 94 16 555 l0 521 -60 0 -60 0 0
-78 c0 -126 25 -117 -335 -117 l-307 0 -19 24 c-18 22 -19 43 -19 330 0 362
-3 351 90 351 32 0 60 3 63 8 2 4 1 33 -1 65 l-4 57 -71 -1 c-40 -1 -84 -4
-99 -6z m180 -1021 c4 -91 -4 -102 -70 -102 -80 0 -88 9 -88 94 0 40 3 76 7
80 4 4 39 5 78 4 l70 -3 3 -73z m260 0 c4 -91 -4 -102 -70 -102 -80 0 -88 9
-88 94 0 40 3 76 7 80 4 4 39 5 78 4 l70 -3 3 -73z m250 0 c4 -91 -4 -102 -70
-102 -80 0 -88 9 -88 94 0 40 3 76 7 80 4 4 39 5 78 4 l70 -3 3 -73z m-533
-182 c25 -10 26 -12 23 -87 l-3 -78 -75 0 -75 0 -3 75 c-2 62 0 77 14 87 21
15 82 17 119 3z m260 0 c25 -10 26 -12 23 -87 l-3 -78 -75 0 -75 0 -3 75 c-2
62 0 77 14 87 21 15 82 17 119 3z m250 0 c25 -10 26 -12 23 -87 l-3 -78 -75 0
-75 0 -3 75 c-2 62 0 77 14 87 21 15 82 17 119 3z m-490 -345 l0 -80 -75 0
-75 0 -3 69 c-4 98 -5 97 80 94 l73 -3 0 -80z m260 0 l0 -80 -75 0 -75 0 -3
69 c-4 98 -5 97 80 94 l73 -3 0 -80z m250 0 l0 -80 -75 0 -75 0 -3 69 c-4 98
-5 97 80 94 l73 -3 0 -80z"/>
<path d="M2990 3426 c0 -75 -40 -149 -105 -196 l-49 -35 -186 -3 -185 -3 -52
-52 c-59 -57 -64 -78 -30 -128 41 -62 70 -69 272 -69 l180 0 102 -102 103
-103 0 101 0 100 34 12 c19 7 48 29 65 48 l31 35 0 179 c0 178 0 179 -26 210
-34 40 -74 60 -119 60 l-35 0 0 -54z"/>
<path d="M3550 862 c-25 -20 -30 -63 -10 -86 14 -18 90 -31 125 -22 25 6 26
10 23 64 l-3 57 -56 3 c-42 2 -61 -1 -79 -16z"/>
<path d="M1800 514 c0 -9 7 -14 17 -12 25 5 28 28 4 28 -12 0 -21 -6 -21 -16z"/>
<path d="M1960 496 c0 -22 5 -36 13 -36 42 1 51 62 10 68 -20 3 -23 -1 -23
-32z"/>
<path d="M2770 515 c0 -17 2 -18 24 -9 23 9 20 24 -4 24 -11 0 -20 -7 -20 -15z"/>
<path d="M2930 514 c0 -17 22 -14 28 4 2 7 -3 12 -12 12 -9 0 -16 -7 -16 -16z"/>
</g>
</svg>
